<?xml version="1.0" encoding="UTF-8"?>
<svg xmlns="http://www.w3.org/2000/svg" width="193" height="225" viewBox="784 292 1935 2254" preserveAspectRatio="xMidYMid meet" xmlns:c2pa="http://c2pa.org/manifest"><metadata><c2pa:manifest>AAAWgmp1bWIAAAAeanVtZGMycGEAEQAQgAAAqgA4m3EDYzJwYQAAABZcanVtYgAAAEdqdW1kYzJtYQARABCAAACqADibcQN1cm46YzJwYTo1MmUwYTdlYS01NjY1LTQ3ODAtODkxMC01MTFkNmQzOWJjOTQAAAADl2p1bWIAAAApanVtZGMyYXMAEQAQgAAAqgA4m3EDYzJwYS5hc3NlcnRpb25zAAAAALxqdW1iAAAARGp1bWRjYm9yABEAEIAAAKoAOJtxE2MycGEuaW5ncmVkaWVudC52MwAAAAAYYzJzaD4Nxs9G9cCvSrQaMJ1+dcMAAABwY2JvcqNpZGM6Zm9ybWF0bWltYWdlL3N2Zyt4bWxqaW5zdGFuY2VJRHgseG1wOmlpZDpiOGVmMzE4OC1lNTYzLTRmZjctOGRiZi00MThlMjY4ZjhkZDJscmVsYXRpb25zaGlwaHBhcmVudE9mAAAB4mp1bWIAAABBanVtZGNib3IAEQAQgAAAqgA4m3ETYzJwYS5hY3Rpb25zLnYyAAAAABhjMnNoI3JSTxiR/ypDU5fM20YxiwAAAZljYm9yomdhY3Rpb25zgqJmYWN0aW9ua2MycGEub3BlbmVkanBhcmFtZXRlcnOha2luZ3JlZGllbnRzgaJjdXJseC1zZWxmI2p1bWJmPWMycGEuYXNzZXJ0aW9ucy9jMnBhLmluZ3JlZGllbnQudjNkaGFzaFggM8DsSZacMgyjesomX+InJCeGE742rXlwPNfsc5StqMmkZmFjdGlvbngdY29tLmFudGhyb3BpYy5jbGF1ZGUucHJvdmlkZWRqcGFyYW1ldGVyc6F4H2NvbS5hbnRocm9waWMub3JpZ2luLWNvbmZpZGVuY2VndW5rbm93bmtkZXNjcmlwdGlvbnhmQ2xhdWRlIHByb3ZpZGVkIHRoaXMgZmlsZSBhdCB0aGUgcmVxdWVzdCBvZiBhIHVzZXIgYW5kIG1heSBoYXZlIGNyZWF0ZWQgb3IgbW9kaWZpZWQgdGhlIGZpbGUgY29udGVudHMubXNvZnR3YXJlQWdlbnShZG5hbWVmQ2xhdWRlcmFsbEFjdGlvbnNJbmNsdWRlZPUAAADIanVtYgAAAEBqdW1kY2JvcgARABCAAACqADibcRNjMnBhLmhhc2guZGF0YQAAAAAYYzJzaM3rEHWzcM5+51Bls60keNgAAACAY2JvcqVjYWxnZnNoYTI1NmNwYWRNAAAAAAAAAAAAAAAAAGRoYXNoWCBkX5RnR+mwN1gPbADS3lNzj7u2y8P7dBXoWGu6g/dF5mRuYW1lbmp1bWJmIG1hbmlmZXN0amV4Y2x1c2lvbnOBomVzdGFydBjnZmxlbmd0aBkeBAAAAj5qdW1iAAAAJ2p1bWRjMmNsABEAEIAAAKoAOJtxA2MycGEuY2xhaW0udjIAAAACD2Nib3KlY2FsZ2ZzaGEyNTZpc2lnbmF0dXJleE1zZWxmI2p1bWJmPS9jMnBhL3VybjpjMnBhOjUyZTBhN2VhLTU2NjUtNDc4MC04OTEwLTUxMWQ2ZDM5YmM5NC9jMnBhLnNpZ25hdHVyZWppbnN0YW5jZUlEeCx4bXA6aWlkOmFjMmMzN2RmLWQ3N2MtNGE2MC1hNGVkLTA3OGFkMzk1NGExZXJjcmVhdGVkX2Fzc2VydGlvbnODomN1cmx4LXNlbGYjanVtYmY9YzJwYS5hc3NlcnRpb25zL2MycGEuaW5ncmVkaWVudC52M2RoYXNoWCAzwOxJlpwyDKN6yiZf4ickJ4YTvjateXA81+xzlK2oyaJjdXJseCpzZWxmI2p1bWJmPWMycGEuYXNzZXJ0aW9ucy9jMnBhLmFjdGlvbnMudjJkaGFzaFggJ+qK0oy+uXkQngR4Jd9qvK/WMPcj4nUOykC7+EwbZN6iY3VybHgpc2VsZiNqdW1iZj1jMnBhLmFzc2VydGlvbnMvYzJwYS5oYXNoLmRhdGFkaGFzaFggFKC6r5qJVcE0hQ/0S75GEzl2Dn6CrsAtD+x1QqVWk8Z0Y2xhaW1fZ2VuZXJhdG9yX2luZm+jZG5hbWVvQW50aHJvcGljIEZpbGVzZ3ZlcnNpb25lMS4wLjBrc3BlY1ZlcnNpb25lMi40LjAAABA4anVtYgAAAChqdW1kYzJjcwARABCAAACqADibcQNjMnBhLnNpZ25hdHVyZQAAABAIY2JvctKEWQISogEmGCFZAgowggIGMIIBjaADAgECAhRA5aAK7sI50L64g/oGQgU9Z1UTADAKBggqhkjOPQQDAzBJMRcwFQYDVQQKEw5BbnRocm9waWMsIFBCQzEuMCwGA1UEAxMlQW50aHJvcGljIENvbnRlbnQgQ3JlZGVudGlhbHMgUm9vdCBDQTAeFw0yNjA4MDcxODQzNTZaFw0yODA4MDYxOTQzNTZaMEQxFzAVBgNVBAoTDkFudGhyb3BpYywgUEJDMSkwJwYDVQQDEyBBbnRocm9waWMgQ2xhdWRlIENvbnRlbnQgU2lnbmluZzBZMBMGByqGSM49AgEGCCqGSM49AwEHA0IABJh6CmvLUBgFFNU0vUKlOVtE6djd17L5SuwX0LemFisBM3dkd/3cyjxFA3Qo5S46fX0/ihY0VZ7mfb9KF703t5OjWDBWMA4GA1UdDwEB/wQEAwIHgDAVBgNVHSUEDjAMBgorBgEEAYPoXgIBMAwGA1UdEwEB/wQCMAAwHwYDVR0jBBgwFoAUzlHiBIFOZFsj+OPEz5o+nMHXXMIwCgYIKoZIzj0EAwMDZwAwZAIwMXMdFJ4BetLLVY7ORuE9noqbbAZOZn/aArXyTwFAZfKrPzxF2vPoJNf1+UCdg1XGAjBwX1zd9WGqYkqmL5SFqw1QySjr1zJfpJM9+1rdDwSPLMOPOjKuiXjoU/pUUeG9RwmhY3BhZFkNngAAAAAAAAAAAAAAAAAAAAAAAAAAAAAAAAAAAAAAAAAAAAAAAAAAAAAAAAAAAAAAAAAAAAAAAAAAAAAAAAAAAAAAAAAAAAAAAAAAAAAAAAAAAAAAAAAAAAAAAAAAAAAAAAAAAAAAAAAAAAAAAAAAAAAAAAAAAAAAAAAAAAAAAAAAAAAAAAAAAAAAAAAAAAAAAAAAAAAAAAAAAAAAAAAAAAAAAAAAAAAAAAAAAAAAAAAAAAAAAAAAAAAAAAAAAAAAAAAAAAAAAAAAAAAAAAAAAAAAAAAAAAAAAAAAAAAAAAAAAAAAAAAAAAAAAAAAAAAAAAAAAAAAAAAAAAAAAAAAAAAAAAAAAAAAAAAAAAAAAAAAAAAAAAAAAAAAAAAAAAAAAAAAAAAAAAAAAAAAAAAAAAAAAAAAAAAAAAAAAAAAAAAAAAAAAAAAAAAAAAAAAAAAAAAAAAAAAAAAAAAAAAAAAAAAAAAAAAAAAAAAAAAAAAAAAAAAAAAAAAAAAAAAAAAAAAAAAAAAAAAAAAAAAAAAAAAAAAAAAAAAAAAAAAAAAAAAAAAAAAAAAAAAAAAAAAAAAAAAAAAAAAAAAAAAAAAAAAAAAAAAAAAAAAAAAAAAAAAAAAAAAAAAAAAAAAAAAAAAAAAAAAAAAAAAAAAAAAAAAAAAAAAAAAAAAAAAAAAAAAAAAAAAAAAAAAAAAAAAAAAAAAAAAAAAAAAAAAAAAAAAAAAAAAAAAAAAAAAAAAAAAAAAAAAAAAAAAAAAAAAAAAAAAAAAAAAAAAAAAAAAAAAAAAAAAAAAAAAAAAAAAAAAAAAAAAAAAAAAAAAAAAAAAAAAAAAAAAAAAAAAAAAAAAAAAAAAAAAAAAAAAAAAAAAAAAAAAAAAAAAAAAAAAAAAAAAAAAAAAAAAAAAAAAAAAAAAAAAAAAAAAAAAAAAAAAAAAAAAAAAAAAAAAAAAAAAAAAAAAAAAAAAAAAAAAAAAAAAAAAAAAAAAAAAAAAAAAAAAAAAAAAAAAAAAAAAAAAAAAAAAAAAAAAAAAAAAAAAAAAAAAAAAAAAAAAAAAAAAAAAAAAAAAAAAAAAAAAAAAAAAAAAAAAAAAAAAAAAAAAAAAAAAAAAAAAAAAAAAAAAAAAAAAAAAAAAAAAAAAAAAAAAAAAAAAAAAAAAAAAAAAAAAAAAAAAAAAAAAAAAAAAAAAAAAAAAAAAAAAAAAAAAAAAAAAAAAAAAAAAAAAAAAAAAAAAAAAAAAAAAAAAAAAAAAAAAAAAAAAAAAAAAAAAAAAAAAAAAAAAAAAAAAAAAAAAAAAAAAAAAAAAAAAAAAAAAAAAAAAAAAAAAAAAAAAAAAAAAAAAAAAAAAAAAAAAAAAAAAAAAAAAAAAAAAAAAAAAAAAAAAAAAAAAAAAAAAAAAAAAAAAAAAAAAAAAAAAAAAAAAAAAAAAAAAAAAAAAAAAAAAAAAAAAAAAAAAAAAAAAAAAAAAAAAAAAAAAAAAAAAAAAAAAAAAAAAAAAAAAAAAAAAAAAAAAAAAAAAAAAAAAAAAAAAAAAAAAAAAAAAAAAAAAAAAAAAAAAAAAAAAAAAAAAAAAAAAAAAAAAAAAAAAAAAAAAAAAAAAAAAAAAAAAAAAAAAAAAAAAAAAAAAAAAAAAAAAAAAAAAAAAAAAAAAAAAAAAAAAAAAAAAAAAAAAAAAAAAAAAAAAAAAAAAAAAAAAAAAAAAAAAAAAAAAAAAAAAAAAAAAAAAAAAAAAAAAAAAAAAAAAAAAAAAAAAAAAAAAAAAAAAAAAAAAAAAAAAAAAAAAAAAAAAAAAAAAAAAAAAAAAAAAAAAAAAAAAAAAAAAAAAAAAAAAAAAAAAAAAAAAAAAAAAAAAAAAAAAAAAAAAAAAAAAAAAAAAAAAAAAAAAAAAAAAAAAAAAAAAAAAAAAAAAAAAAAAAAAAAAAAAAAAAAAAAAAAAAAAAAAAAAAAAAAAAAAAAAAAAAAAAAAAAAAAAAAAAAAAAAAAAAAAAAAAAAAAAAAAAAAAAAAAAAAAAAAAAAAAAAAAAAAAAAAAAAAAAAAAAAAAAAAAAAAAAAAAAAAAAAAAAAAAAAAAAAAAAAAAAAAAAAAAAAAAAAAAAAAAAAAAAAAAAAAAAAAAAAAAAAAAAAAAAAAAAAAAAAAAAAAAAAAAAAAAAAAAAAAAAAAAAAAAAAAAAAAAAAAAAAAAAAAAAAAAAAAAAAAAAAAAAAAAAAAAAAAAAAAAAAAAAAAAAAAAAAAAAAAAAAAAAAAAAAAAAAAAAAAAAAAAAAAAAAAAAAAAAAAAAAAAAAAAAAAAAAAAAAAAAAAAAAAAAAAAAAAAAAAAAAAAAAAAAAAAAAAAAAAAAAAAAAAAAAAAAAAAAAAAAAAAAAAAAAAAAAAAAAAAAAAAAAAAAAAAAAAAAAAAAAAAAAAAAAAAAAAAAAAAAAAAAAAAAAAAAAAAAAAAAAAAAAAAAAAAAAAAAAAAAAAAAAAAAAAAAAAAAAAAAAAAAAAAAAAAAAAAAAAAAAAAAAAAAAAAAAAAAAAAAAAAAAAAAAAAAAAAAAAAAAAAAAAAAAAAAAAAAAAAAAAAAAAAAAAAAAAAAAAAAAAAAAAAAAAAAAAAAAAAAAAAAAAAAAAAAAAAAAAAAAAAAAAAAAAAAAAAAAAAAAAAAAAAAAAAAAAAAAAAAAAAAAAAAAAAAAAAAAAAAAAAAAAAAAAAAAAAAAAAAAAAAAAAAAAAAAAAAAAAAAAAAAAAAAAAAAAAAAAAAAAAAAAAAAAAAAAAAAAAAAAAAAAAAAAAAAAAAAAAAAAAAAAAAAAAAAAAAAAAAAAAAAAAAAAAAAAAAAAAAAAAAAAAAAAAAAAAAAAAAAAAAAAAAAAAAAAAAAAAAAAAAAAAAAAAAAAAAAAAAAAAAAAAAAAAAAAAAAAAAAAAAAAAAAAAAAAAAAAAAAAAAAAAAAAAAAAAAAAAAAAAAAAAAAAAAAAAAAAAAAAAAAAAAAAAAAAAAAAAAAAAAAAAAAAAAAAAAAAAAAAAAAAAAAAAAAAAAAAAAAAAAAAAAAAAAAAAAAAAAAAAAAAAAAAAAAAAAAAAAAAAAAAAAAAAAAAAAAAAAAAAAAAAAAAAAAAAAAAAAAAAAAAAAAAAAAAAAAAAAAAAAAAAAAAAAAAAAAAAAAAAAAAAAAAAAAAAAAAAAAAAAAAAAAAAAAAAAAAAAAAAAAAAAAAAAAAAAAAAAAAAAAAAAAAAAAAAAAAAAAAAAAAAAAAAAAAAAAAAAAAAAAAAAAAAAAAAAAAAAAAAAAAAAAAAAAAAAAAAAAAAAAAAAAAAAAAAAAAAAAAAAAAAAAAAAAAAAAAAAAAAAAAAAAAAAAAAAAAAAAAAAAAAAAAAAAAAAAAAAAAAAAAAAAAAAAAAAAAAAAAAAAAAAAAAAAAAAAAAAAAAAAAAAAAAAAAAAAAAAAAAAAAAAAAAAAAAAAAAAAAAAAAAAAAAAAAAAAAAAAAAAAAAAAAAAAAAAAAAAAAAAAAAAAAAAAAAAAAAAAAAAAAAAAAAAAAAAAAAAAAAAAAAAAAAAAAAAAAAAAAAAAAAAAAAAAAAAAAAAAAAAAAAAAAAAAAAAAAAAAAAAAAAAAAAAAAAAAAAAAAAAAAAAAAAAAAAAAAAAAAAAAAAAAAAAAAAAAAAAAAAAAAAAAAAAAAAAAAAAAAAAAAAAAAAAAAAAAAAAAAAAAAAAAAAAAAAAAAAAAAAAAAAAAAAAAAAAAAAAAAAAAAAAAAAAAAAAAAAAAAAAAAAAAAAAAAAAAAAAAAAAAAAAAAAAAAAAAAAAAAAAAAAAAAAAAAAAAAAAAAAAAAAAAAAAAAAAAAAAAAAAAAAAAAAAAAAAAAAAAAAAAAAAAAAAAAAAAAAAAAAAAAAAAAAAAAAAAAAAAAAAAAAAAAAAAAAAAAAAAAAAAAAAAAAAAAAAAAAAAAAAAAAAAAAAAAAAAAAAAAAAAAAAAAAAAAAAAAAAAAAAAAAAAAAAAAAAAAAAAAAAAAAAAAAAAAAAAAAAAAAAAAAAAAAAAAAAAAAAAAAAAAAAAAAAAAAAAAAAAAAAAAAAAAAAAAAAAAAAAAAAAAAAAAAAAAAAAAAAAAAAAAAAAAAAAAAAAAAAAAAAAAAAAAAAAAAAAAAAAAAAAAAAAAAAAAAAAAAAAAAAAAAAAAAAAAAAAAAAAAAAAAAAAAAAAAAAAAAAAAAAAAAAAAAAAAAAAAAAAAAAAAAAAAAAAAAAAAAAAAAAAAAAAAAAAAAAAAAAAAAAAAAAAAAAAAAAAAAAAAAAAAAAAAAAAAAAAAAAAAAAAAAAAAAAAAAAAAAAAAAAAAAAAAAAAAAAAAAAAAAAAAAAAAAAAAAAAAAAAAAAAAAAAAAAAAAAAAAAAAAAAAAAAAAAAAAAAAAAAAAAAAAAAAAAAAAAAAAAAAAAAAAAAAAAAAAAAAAAAAAAAAAAAAAAAAAAAAAAAAAAAAAAAAAAAAAAAAAAAAAAAAAAAAAAAAAAAAAAAAAAAAAAAAAAAAAAAAAAAAAAAAAAAAAAAAAAAAAAAAAAAAAAAAAAAAAAAAAAAAAAAAAAAAAAAAAAAAAAAAAAAAAAAAAAAAAAAAAAAAAAAAAAAAAAAAAAAAAAAAAAAAAAAAAAAAAAAAAAAAAAAAAAAAAAAAAAAAAAAAAAAAAAAPZYQJovb4AmzyskyfqOYcxMZEXiAmXoNoTnuZKQIVlGYjE3IURp6TeoD8KoILYtmGhq9JLou8GwG9HsCIGbSzUIWOs=</c2pa:manifest></metadata>
<g transform="translate(0,3473) scale(0.1,-0.1)" fill="#1686e8" stroke="none">
<path d="M17307 31550 c-637 -100 -1130 -583 -1233 -1208 -21 -129 -15 -415
11 -532 63 -285 191 -517 399 -726 288 -288 625 -428 1026 -428 185 1 295 18
465 75 504 168 876 601 971 1129 24 130 23 372 -1 500 -56 302 -188 553 -405
771 -208 209 -446 339 -740 404 -88 20 -403 29 -493 15z"/>
<path d="M12860 28400 c-593 -82 -1089 -487 -1284 -1049 -66 -190 -80 -279
-80 -516 -1 -180 3 -224 22 -311 31 -143 65 -242 127 -371 153 -319 393 -565
707 -724 238 -120 446 -169 716 -169 281 0 526 63 764 196 418 234 708 643
788 1109 27 158 27 381 1 537 -109 636 -598 1141 -1239 1279 -110 23 -410 34
-522 19z"/>
<path d="M21751 28400 c-243 -34 -500 -134 -702 -275 -117 -81 -319 -287 -397
-405 -122 -183 -209 -395 -248 -605 -29 -153 -27 -443 4 -589 106 -497 421
-900 872 -1115 122 -58 219 -91 362 -123 91 -20 129 -23 318 -23 184 1 230 4
317 23 779 169 1317 883 1253 1664 -18 216 -66 390 -161 583 -76 153 -169 283
-289 405 -128 130 -249 217 -410 298 -240 121 -406 162 -675 167 -99 2 -209 0
-244 -5z"/>
<path d="M17256 27674 c-428 -58 -811 -248 -1117 -553 -285 -286 -467 -635
-541 -1041 -28 -152 -31 -485 -5 -630 109 -623 478 -1136 1018 -1414 305 -158
556 -219 899 -219 210 -1 310 12 495 60 490 128 919 454 1179 895 474 807 297
1850 -416 2456 -229 194 -528 346 -815 412 -207 49 -490 63 -697 34z"/>
<path d="M9190 24524 c-14 -2 -56 -9 -95 -15 -362 -58 -700 -307 -872 -645
-105 -204 -139 -365 -130 -612 7 -200 38 -326 122 -492 173 -343 479 -575 865
-656 116 -25 344 -25 460 0 384 80 697 319 869 664 137 273 160 629 60 926
-138 413 -485 720 -919 811 -72 16 -309 28 -360 19z"/>
<path d="M25560 24519 c-520 -67 -936 -456 -1046 -979 -25 -116 -25 -353 -1
-467 106 -498 470 -863 967 -969 60 -13 128 -18 235 -18 275 0 513 77 728 237
161 119 275 256 367 442 264 530 111 1166 -365 1523 -98 73 -290 167 -405 197
-165 42 -325 54 -480 34z"/>
<path d="M12927 23780 c-699 -66 -1254 -562 -1409 -1257 -30 -134 -33 -470 -5
-608 108 -529 473 -973 961 -1169 519 -209 1100 -130 1552 210 105 79 271 257
347 370 114 172 194 359 240 562 30 134 32 491 3 622 -131 604 -556 1060
-1136 1220 -164 45 -390 65 -553 50z"/>
<path d="M21817 23780 c-623 -59 -1146 -469 -1351 -1059 -66 -188 -80 -279
-80 -511 0 -176 3 -220 22 -310 70 -323 208 -577 436 -806 231 -230 495 -371
821 -437 157 -31 442 -31 595 2 426 90 775 324 1012 678 231 345 315 784 229
1198 -62 293 -222 586 -438 797 -169 165 -402 307 -623 378 -180 59 -437 87
-623 70z"/>
<path d="M17325 22849 c-366 -35 -750 -192 -1039 -428 -342 -277 -586 -680
-675 -1111 -144 -698 109 -1424 654 -1879 481 -401 1126 -547 1730 -391 1147
296 1764 1549 1298 2638 -331 775 -1128 1250 -1968 1171z"/>
<path d="M14184 19896 c-11 -29 30 -135 124 -316 196 -379 231 -451 271 -553
58 -149 86 -277 121 -552 37 -297 88 -547 140 -700 69 -198 184 -406 319 -575
65 -81 291 -310 307 -310 6 0 17 19 24 43 51 170 217 373 398 484 l82 50 -93
33 c-118 42 -254 107 -337 161 -83 55 -187 160 -223 226 -15 28 -84 206 -152
395 -172 471 -241 642 -350 863 -136 279 -246 435 -451 640 -109 109 -167 145
-180 111z"/>
<path d="M20813 19693 c-32 -6 -118 -87 -162 -152 -80 -118 -200 -359 -325
-651 -66 -154 -177 -277 -616 -682 -245 -226 -303 -283 -381 -376 -35 -41 -39
-43 -130 -58 -454 -73 -908 -302 -1211 -611 -107 -109 -206 -245 -264 -363
l-49 -101 -100 5 c-373 16 -789 223 -1130 563 -56 55 -106 97 -114 95 -9 -1
-52 -14 -96 -29 -415 -133 -627 -450 -575 -859 36 -288 167 -543 354 -690 83
-66 186 -116 284 -140 l73 -17 27 25 c82 75 172 108 295 108 45 0 88 -4 95 -9
7 -4 22 -52 33 -107 17 -82 20 -124 16 -243 l-4 -144 61 -121 c171 -337 367
-543 640 -672 89 -42 230 -88 308 -100 l38 -7 0 -52 c0 -95 -43 -175 -109
-202 -41 -17 -107 -15 -366 12 -201 21 -652 16 -845 -9 -491 -65 -1041 -258
-1311 -461 -335 -251 -468 -585 -510 -1280 -28 -470 6 -1004 98 -1535 47 -274
48 -287 29 -353 -38 -132 -168 -274 -463 -510 -94 -75 -185 -153 -202 -174
-108 -131 92 -211 379 -153 130 26 261 73 450 160 230 105 336 166 408 235 79
77 80 98 18 228 -105 217 -93 352 104 1172 155 644 185 844 177 1145 -3 116
-11 211 -21 255 -15 65 -15 74 0 123 22 68 81 135 139 158 34 12 65 15 125 12
75 -4 90 -9 213 -71 181 -91 346 -132 694 -174 180 -21 799 -25 923 -6 41 7
76 11 77 9 1 -1 -16 -44 -38 -96 -52 -119 -102 -294 -126 -435 -14 -87 -18
-163 -18 -365 0 -274 15 -396 67 -572 l23 -77 135 -107 c74 -59 367 -280 650
-492 571 -427 680 -513 758 -596 42 -44 52 -61 47 -79 -3 -12 -48 -107 -100
-212 -108 -215 -119 -257 -83 -299 33 -39 94 -48 237 -36 243 22 358 59 411
132 16 22 47 86 70 143 67 174 55 234 -77 363 -88 87 -114 136 -150 290 -90
382 -145 496 -318 660 -186 177 -417 282 -659 300 l-95 7 48 105 c141 307 334
872 435 1276 139 552 118 942 -74 1424 l-38 95 -6 195 c-16 542 -94 940 -257
1305 l-51 114 34 58 c89 152 136 316 145 505 l6 127 56 37 c151 100 411 302
601 468 252 220 390 381 595 691 62 94 174 264 249 379 112 170 157 228 241
313 85 86 111 120 153 201 114 220 193 526 194 757 0 111 -14 174 -46 204 -23
22 -59 31 -93 24z"/>
</g>
</svg>
